<svg width="100" height="50" viewBox="0 0 100 50" fill="none" xmlns="http://www.w3.org/2000/svg">
<path d="M0 35C0 33.8954 0.895431 33 2 33H6C7.10457 33 8 33.8954 8 35V50H0V35Z" fill="#FD9D9D"/>
<path d="M11 22C11 20.8954 11.8954 20 13 20H17C18.1046 20 19 20.8954 19 22V50H11V22Z" fill="#FD9D9D"/>
<path d="M22 13C22 11.8954 22.8954 11 24 11H28C29.1046 11 30 11.8954 30 13V50H22V13Z" fill="#FD9D9D"/>
<path d="M33 31C33 29.8954 33.8954 29 35 29H39C40.1046 29 41 29.8954 41 31V50H33V31Z" fill="#FD9D9D"/>
<path d="M44 39C44 37.8954 44.8954 37 46 37H50C51.1046 37 52 37.8954 52 39V50H44V39Z" fill="#FD9D9D"/>
<path d="M55 35C55 33.8954 55.8954 33 57 33H61C62.1046 33 63 33.8954 63 35V50H55V35Z" fill="#FD9D9D"/>
<path d="M66 22C66 20.8954 66.8954 20 68 20H72C73.1046 20 74 20.8954 74 22V50H66V22Z" fill="#FD9D9D"/>
<path d="M77 31C77 29.8954 77.8954 29 79 29H83C84.1046 29 85 29.8954 85 31V50H77V31Z" fill="#FD9D9D"/>
<path d="M88 39C88 37.8954 88.8954 37 90 37H94C95.1046 37 96 37.8954 96 39V50H88V39Z" fill="#FD9D9D"/>
</svg>
