<svg width="190" height="80" viewBox="0 0 190 80" fill="none" xmlns="http://www.w3.org/2000/svg">
<path d="M20.0947 79.6674L48.1766 30.2913L82 50.9566L20.0947 79.6674Z" fill="#58D573"/>
<path d="M20.0947 79.6674L48.1766 30.2913L82 50.9566L20.0947 79.6674Z" fill="#58D573"/>
<path d="M63.9053 0.332626L35.8234 49.7087L2.00003 29.0434L63.9053 0.332626Z" fill="#FD9D9D"/>
<path d="M63.9053 0.332626L35.8234 49.7087L2.00003 29.0434L63.9053 0.332626Z" fill="#FD9D9D"/>
<path d="M86.5625 54V26.5H97.5625V31.8594H92.0938V36.2344H97.2812V41.5312H92.0938V54H86.5625ZM99.2188 29.125V24.4688H104.812V29.125H99.2188ZM99.2188 54V30.5625H104.812V54H99.2188ZM107.031 54V30.5625H112.625V33.5469C112.833 32.651 113.219 31.8906 113.781 31.2656C114.354 30.6302 115.146 30.3125 116.156 30.3125C117.781 30.3125 118.958 30.8125 119.688 31.8125C120.427 32.8125 120.797 34.1823 120.797 35.9219V54H115.281V36.5C115.281 36.0417 115.188 35.6198 115 35.2344C114.812 34.8385 114.49 34.6406 114.031 34.6406C113.604 34.6406 113.286 34.7917 113.078 35.0938C112.88 35.3854 112.755 35.7552 112.703 36.2031C112.651 36.6406 112.625 37.0781 112.625 37.5156V54H107.031ZM127.266 54.25C125.964 54.25 124.969 53.9479 124.281 53.3438C123.604 52.7396 123.141 51.9115 122.891 50.8594C122.641 49.8073 122.516 48.6146 122.516 47.2812C122.516 45.8542 122.656 44.6875 122.938 43.7812C123.219 42.8646 123.698 42.1146 124.375 41.5312C125.062 40.9479 126.005 40.4531 127.203 40.0469L130.672 38.8594V36.4531C130.672 35.1927 130.26 34.5625 129.438 34.5625C128.688 34.5625 128.312 35.0729 128.312 36.0938V37.5H122.875C122.865 37.4167 122.859 37.3125 122.859 37.1875C122.859 37.0521 122.859 36.901 122.859 36.7344C122.859 34.401 123.406 32.75 124.5 31.7812C125.604 30.8021 127.349 30.3125 129.734 30.3125C130.984 30.3125 132.104 30.5365 133.094 30.9844C134.083 31.4219 134.865 32.0729 135.438 32.9375C136.021 33.8021 136.312 34.8698 136.312 36.1406V54H130.75V51.2188C130.479 52.1979 130.031 52.9479 129.406 53.4688C128.781 53.9896 128.068 54.25 127.266 54.25ZM129.469 49.9062C129.927 49.9062 130.24 49.7135 130.406 49.3281C130.573 48.9427 130.656 48.526 130.656 48.0781V41.5469C129.885 41.8594 129.286 42.2552 128.859 42.7344C128.432 43.2031 128.219 43.8958 128.219 44.8125V47.8281C128.219 49.2135 128.635 49.9062 129.469 49.9062ZM138.469 54V30.5625H144.062V33.5469C144.271 32.651 144.656 31.8906 145.219 31.2656C145.792 30.6302 146.583 30.3125 147.594 30.3125C149.219 30.3125 150.396 30.8125 151.125 31.8125C151.865 32.8125 152.234 34.1823 152.234 35.9219V54H146.719V36.5C146.719 36.0417 146.625 35.6198 146.438 35.2344C146.25 34.8385 145.927 34.6406 145.469 34.6406C145.042 34.6406 144.724 34.7917 144.516 35.0938C144.318 35.3854 144.193 35.7552 144.141 36.2031C144.089 36.6406 144.062 37.0781 144.062 37.5156V54H138.469ZM161.484 54.25C158.859 54.25 156.995 53.5781 155.891 52.2344C154.797 50.8906 154.25 48.9167 154.25 46.3125V39.0938C154.25 37.1354 154.458 35.5052 154.875 34.2031C155.292 32.901 156.021 31.9271 157.062 31.2812C158.104 30.6354 159.552 30.3125 161.406 30.3125C162.698 30.3125 163.854 30.5417 164.875 31C165.906 31.4583 166.719 32.1302 167.312 33.0156C167.906 33.901 168.203 34.9844 168.203 36.2656V39.8438H162.5V36.5625C162.5 36.0208 162.422 35.5677 162.266 35.2031C162.109 34.8281 161.771 34.6406 161.25 34.6406C160.333 34.6406 159.875 35.2917 159.875 36.5938V47.9531C159.875 48.4323 159.979 48.875 160.188 49.2812C160.396 49.6771 160.74 49.875 161.219 49.875C161.708 49.875 162.047 49.6823 162.234 49.2969C162.432 48.901 162.531 48.4427 162.531 47.9219V43.9844H168.203V48.0781C168.203 49.3698 167.911 50.4792 167.328 51.4062C166.755 52.3229 165.964 53.026 164.953 53.5156C163.943 54.0052 162.786 54.25 161.484 54.25ZM176.719 54.25C175.052 54.25 173.724 53.9375 172.734 53.3125C171.745 52.6875 171.036 51.7865 170.609 50.6094C170.182 49.4323 169.969 48.0156 169.969 46.3594V36.9375C169.969 34.7604 170.594 33.1146 171.844 32C173.094 30.875 174.812 30.3125 177 30.3125C181.5 30.3125 183.75 32.5208 183.75 36.9375V38.6406C183.75 40.7031 183.729 42.0885 183.688 42.7969H175.562V47.3281C175.562 47.7448 175.589 48.1562 175.641 48.5625C175.693 48.9583 175.807 49.2865 175.984 49.5469C176.172 49.8073 176.469 49.9375 176.875 49.9375C177.458 49.9375 177.823 49.6875 177.969 49.1875C178.115 48.6771 178.188 48.0156 178.188 47.2031V44.9531H183.75V46.2812C183.75 48.0312 183.531 49.5 183.094 50.6875C182.667 51.8646 181.938 52.7552 180.906 53.3594C179.885 53.9531 178.49 54.25 176.719 54.25ZM175.531 40.0156H178.188V36.8594C178.188 36.0156 178.083 35.4115 177.875 35.0469C177.667 34.6719 177.354 34.4844 176.938 34.4844C176.49 34.4844 176.141 34.6615 175.891 35.0156C175.651 35.3698 175.531 35.9844 175.531 36.8594V40.0156Z" fill="white"/>
</svg>
